<svg width="14" height="15" viewBox="0 0 14 15" fill="none" xmlns="http://www.w3.org/2000/svg">
<path fill-rule="evenodd" clip-rule="evenodd" d="M7.32906 1.97021C4.59659 1.97021 2.38149 4.18531 2.38149 6.91778C2.38149 8.17968 2.8531 9.32993 3.63064 10.2042L4.04609 10.6714L2.70293 11.8653H7.30691L7.32906 11.8653C10.0615 11.8653 12.2766 9.65024 12.2766 6.91778C12.2766 4.18531 10.0615 1.97021 7.32906 1.97021ZM1.13149 6.91778C1.13149 3.49496 3.90624 0.720215 7.32906 0.720215C10.7519 0.720215 13.5266 3.49496 13.5266 6.91778C13.5266 10.3406 10.7519 13.1153 7.32906 13.1153L7.30418 13.1153H1.7166C0.912028 13.1153 0.533934 12.1208 1.13528 11.5863L2.30467 10.5469C1.56684 9.52689 1.13149 8.27262 1.13149 6.91778Z" fill="#1CA8AF"/>
<path fill-rule="evenodd" clip-rule="evenodd" d="M5.125 4.91797C4.77982 4.91797 4.5 5.19779 4.5 5.54297C4.5 5.88815 4.77982 6.16797 5.125 6.16797H9.875C10.2202 6.16797 10.5 5.88815 10.5 5.54297C10.5 5.19779 10.2202 4.91797 9.875 4.91797H5.125ZM5.125 7.66797C4.77982 7.66797 4.5 7.94779 4.5 8.29297C4.5 8.63815 4.77982 8.91797 5.125 8.91797H7.875C8.22018 8.91797 8.5 8.63815 8.5 8.29297C8.5 7.94779 8.22018 7.66797 7.875 7.66797H5.125Z" fill="#1CA8AF"/>
</svg>
